<svg width="39" height="43" viewBox="0 0 39 43" fill="none" xmlns="http://www.w3.org/2000/svg">
<path d="M35.7992 3.65233C33.1361 4.15564 32.7375 4.5657 32.2481 7.30466C31.7587 4.5657 31.3601 4.15564 28.697 3.65233C31.3601 3.1479 31.7587 2.73897 32.2481 0C32.7375 2.73897 33.1361 3.14903 35.7992 3.65233Z" fill="#E78F24"/>
<path d="M14.7221 28.6401C14.6697 28.6794 14.615 28.7142 14.5637 28.7535C14.5473 28.7659 14.5255 28.7805 14.5058 28.7951C14.3212 28.9333 14.1377 29.0703 13.9575 29.2153C13.6757 29.4298 13.4004 29.6534 13.1317 29.8792C12.5266 30.3881 11.94 30.9173 11.3807 31.4712C11.1098 31.7363 10.8499 32.0048 10.5932 32.28C9.55004 33.3844 8.58881 34.5685 7.72043 35.8301C7.66254 35.9166 7.60028 36.0054 7.54566 36.0941C7.36652 35.9492 7.19176 35.8043 7.02136 35.656C7.00279 35.6459 6.99077 35.6313 6.97657 35.6167C6.84222 35.5055 6.70568 35.3852 6.57023 35.2673C6.56368 35.2617 6.55385 35.2527 6.54839 35.2426H6.54402L6.53965 35.2403L6.53528 35.2358C6.52873 35.228 6.52327 35.2257 6.51562 35.2167C6.49159 35.1965 6.46756 35.1752 6.4468 35.1549C6.43697 35.1426 6.42714 35.1358 6.4184 35.1302C6.38236 35.0954 6.33976 35.0583 6.30153 35.0224C6.27531 35.0021 6.24691 34.9752 6.21961 34.946C6.13768 34.8752 6.05467 34.7977 5.97602 34.7202C5.96619 34.7157 5.95964 34.7101 5.95636 34.7011C5.94653 34.6954 5.9367 34.6865 5.92796 34.6808C5.8941 34.646 5.85915 34.6123 5.82528 34.5775C5.82528 34.5775 5.82383 34.5767 5.82091 34.5752C5.81108 34.5707 5.80453 34.5651 5.79688 34.5528C5.78268 34.5382 5.7663 34.5258 5.7521 34.509C5.66144 34.4258 5.57078 34.3337 5.47902 34.2461C5.44516 34.2146 5.41239 34.182 5.3829 34.1551C5.29006 34.0596 5.19393 33.963 5.09781 33.8652C4.76575 33.5259 4.44024 33.1765 4.12457 32.8238C3.92577 32.598 3.72806 32.3733 3.538 32.1441C3.5238 32.125 3.5096 32.1115 3.49977 32.098C3.16443 32.28 2.82036 32.4474 2.46427 32.5946C2.38234 32.6294 2.29933 32.6654 2.21741 32.6935C2.10053 32.7429 1.98475 32.7845 1.8635 32.8238C1.78158 32.853 1.69856 32.88 1.61664 32.908C1.53472 32.9328 1.45607 32.9575 1.37306 32.9822C1.30096 33.0024 1.2245 33.0238 1.14586 33.0417C1.07376 33.062 0.999488 33.0833 0.923027 33.1013L0.78212 33.1327C0.675074 33.1574 0.569121 33.1822 0.464259 33.2035C0.387798 33.2181 0.311337 33.2327 0.232691 33.2473C0.158414 33.2619 0.0775841 33.2765 3.05176e-05 33.2866C0.0579226 33.208 0.112538 33.1372 0.174799 33.0631L0.179168 33.0608L0.24143 33.0069C0.247983 33.0024 0.253445 32.9968 0.261091 32.9878L0.401998 32.8777C0.401998 32.8777 0.408552 32.8721 0.416198 32.8676C0.428213 32.8552 0.446783 32.8429 0.45989 32.8305C0.48829 32.8081 0.514505 32.7912 0.541813 32.771C0.575674 32.7418 0.606259 32.7171 0.64012 32.6923C0.684905 32.6609 0.730781 32.6283 0.771197 32.5968C0.813797 32.5654 0.849842 32.5407 0.89135 32.5126C0.941596 32.4733 0.994027 32.4384 1.04646 32.4025C1.09452 32.371 1.1404 32.3385 1.18955 32.307C1.21358 32.2879 1.23543 32.2755 1.26164 32.2621C1.2813 32.2475 1.30533 32.2328 1.33046 32.2182C1.35449 32.2014 1.37852 32.1868 1.40692 32.1688C1.44515 32.1486 1.47901 32.1227 1.51942 32.098C1.57732 32.0632 1.6363 32.0273 1.69856 31.9924C1.73898 31.9677 1.77721 31.9464 1.81544 31.9261C1.82527 31.9183 1.8351 31.916 1.84384 31.9115C1.85367 31.9037 1.87005 31.8969 1.88425 31.8913C1.89845 31.879 1.92248 31.8688 1.93887 31.8587C1.99567 31.8273 2.05356 31.7969 2.11145 31.7677C2.12128 31.7599 2.13548 31.7531 2.14968 31.7475C2.18027 31.7284 2.2185 31.7127 2.25236 31.6981C2.26874 31.6835 2.29059 31.6756 2.30698 31.6655C2.32664 31.6588 2.34957 31.6487 2.36487 31.6385C2.41293 31.6161 2.46536 31.5936 2.51124 31.5678C2.52544 31.5599 2.53964 31.5532 2.55384 31.5487C2.55821 31.5442 2.56367 31.5442 2.56804 31.5419C2.56804 31.5419 2.57022 31.5419 2.57022 31.5374H2.58224C2.59425 31.5273 2.61282 31.5183 2.62593 31.5127C2.67617 31.4925 2.72424 31.4689 2.77667 31.4464C2.82473 31.424 2.87279 31.4026 2.92303 31.3824C3.07814 31.3139 3.23653 31.2543 3.39709 31.1982C3.35231 30.8634 3.31517 30.5286 3.28022 30.1893C3.27257 30.1455 3.27039 30.105 3.26602 30.0635C3.25619 29.9702 3.24745 29.8792 3.24199 29.7849C3.23762 29.7523 3.23543 29.7163 3.23216 29.6815C3.22779 29.6399 3.22451 29.595 3.22233 29.5467C3.21796 29.5119 3.21796 29.4759 3.21468 29.4411C3.20813 29.3523 3.19829 29.2658 3.19502 29.1726C3.18846 29.0321 3.17863 28.8917 3.17099 28.7513C3.16662 28.6917 3.16443 28.6232 3.16443 28.5592C3.1546 28.4232 3.15023 28.2884 3.14586 28.148C3.14149 28.1289 3.14149 28.1132 3.14149 28.0941C3.14149 28.0345 3.13931 27.9828 3.13931 27.9244C3.13494 27.8435 3.13494 27.7638 3.13166 27.6851V27.5099C3.12948 27.3795 3.12948 27.2492 3.12948 27.1155V26.8425C3.13603 26.2673 3.15351 25.6989 3.18956 25.1394C4.70349 24.8889 6.25674 24.7585 7.8384 24.7585C8.2218 24.7585 8.60629 24.7642 8.9886 24.7833C9.11967 24.7855 9.24747 24.7934 9.37636 24.8001C9.46921 24.8046 9.55768 24.8102 9.64944 24.8192C9.71825 24.8192 9.78379 24.8248 9.84824 24.8293C9.8963 24.8338 9.94873 24.8361 9.99897 24.8439C10.047 24.8439 10.0951 24.8462 10.1432 24.854C10.2742 24.8608 10.4009 24.8743 10.5266 24.8855C10.6085 24.8934 10.6959 24.9046 10.7778 24.9147C10.7974 24.9147 10.8182 24.9192 10.8379 24.9192C10.9449 24.9293 11.0465 24.9394 11.1514 24.954C11.3141 24.9709 11.479 24.9911 11.6418 25.0136C11.8264 25.0383 12.0121 25.0652 12.1967 25.0945C12.2786 25.1046 12.366 25.1192 12.4479 25.1338C12.5506 25.1506 12.6467 25.1686 12.745 25.1832C12.7549 25.1753 12.7691 25.1686 12.7833 25.1607C12.9963 25.0349 13.2114 24.9147 13.4288 24.8012C13.443 24.8608 13.4594 24.9214 13.4725 24.9787C13.6232 25.5787 13.798 26.1741 13.9968 26.7572C14.035 26.8729 14.0754 26.9863 14.1137 27.0987C14.118 27.1088 14.1213 27.1178 14.1235 27.1279C14.1923 27.3223 14.2644 27.5189 14.3409 27.7087C14.3715 27.793 14.4031 27.8761 14.437 27.9592C14.4654 28.0334 14.4949 28.1064 14.5255 28.1783C14.5877 28.3356 14.6522 28.4906 14.7188 28.6412L14.7221 28.6401Z" fill="#70B086"/>
<path d="M15.0443 23.7609V23.7632C15.0301 23.771 15.0159 23.7823 15.0017 23.7924C15.0159 23.7778 15.0301 23.7677 15.0443 23.7609Z" fill="#242121"/>
<path d="M22.9854 13.4533V13.4578C20.9417 15.844 18.4468 17.8089 15.6364 19.2087C15.8941 13.596 18.1344 8.52134 21.6539 4.70499C21.6539 5.03977 21.6604 5.37456 21.6735 5.7071C21.7806 8.39439 22.2284 10.9952 22.9843 13.4533H22.9854Z" fill="#242121"/>
<path d="M22.9854 13.4533V13.4578C20.9417 15.844 18.4468 17.8089 15.6364 19.2087C15.8941 13.596 18.1344 8.52134 21.6539 4.70499C21.6539 5.03977 21.6604 5.37456 21.6735 5.7071C21.7806 8.39439 22.2284 10.9952 22.9843 13.4533H22.9854Z" fill="#242121"/>
<path d="M15.0443 23.7609V23.7632C15.0301 23.771 15.0159 23.7823 15.0017 23.7924C15.0159 23.7778 15.0301 23.7677 15.0443 23.7609Z" fill="#242121"/>
<path d="M22.9854 13.4533V13.4578C20.9417 15.844 18.4468 17.8089 15.6364 19.2087C15.8941 13.596 18.1344 8.52134 21.6539 4.70499C21.6539 5.03977 21.6604 5.37456 21.6735 5.7071C21.7806 8.39439 22.2284 10.9952 22.9843 13.4533H22.9854Z" fill="#242121"/>
<path d="M37.4409 42.5551C32.0296 41.7799 27.1197 39.405 23.1656 35.9144C24.4796 33.9506 26.0766 32.1935 27.8832 30.7072C28.3497 31.7487 28.874 32.7541 29.4474 33.7237C29.5643 33.9225 29.6845 34.1169 29.8057 34.3112C29.8319 34.3562 29.868 34.4067 29.8942 34.4562C31.0444 36.2728 32.3781 37.9523 33.8702 39.4656C33.8702 39.4656 33.8716 39.4656 33.8745 39.4656C34.3344 39.9386 34.8117 40.3902 35.3022 40.8239C35.6178 41.107 35.9368 41.3777 36.2667 41.6429C36.2863 41.662 36.3071 41.6777 36.3267 41.6968C36.6905 41.9923 37.0608 42.2776 37.442 42.5574L37.4409 42.5551Z" fill="#242121"/>
<path d="M20.768 26.7628C19.3152 26.7853 17.9018 26.974 16.543 27.3088C16.5288 27.2863 16.5167 27.2616 16.5047 27.2369C17.8636 26.9021 19.3109 26.7785 20.768 26.7639V26.7628Z" fill="#F4B82B"/>
<path d="M22.9854 13.4533V13.4578C20.9417 15.844 18.4468 17.8089 15.6364 19.2087C15.8941 13.596 18.1344 8.52134 21.6539 4.70499C21.6539 5.03977 21.6604 5.37456 21.6735 5.7071C21.7806 8.39439 22.2284 10.9952 22.9843 13.4533H22.9854Z" fill="#242121"/>
<path d="M24.4021 27.0583C23.3163 26.8616 22.1989 26.7605 21.0596 26.7605C20.9635 26.7605 20.8652 26.7605 20.768 26.7628C19.3109 26.7774 17.8636 26.901 16.5047 27.2358C16.4643 27.2728 16.4261 27.3077 16.3879 27.347C16.2612 27.4649 16.1366 27.5885 16.0121 27.7132C15.8876 27.8379 15.7663 27.9638 15.644 28.0896C15.6298 28.0694 15.62 28.0446 15.6058 28.021C15.5752 28.0401 15.5435 28.0604 15.5151 28.0851C15.2617 28.2547 15.0127 28.4345 14.7614 28.6097C14.7472 28.6221 14.733 28.6288 14.721 28.6389C14.6544 28.4884 14.5899 28.3334 14.5277 28.1761C14.4971 28.1042 14.4676 28.0312 14.4392 27.957C14.4053 27.8739 14.3726 27.7919 14.3431 27.7065C14.2666 27.5166 14.1945 27.32 14.1257 27.1257C14.1235 27.1155 14.1192 27.1066 14.1159 27.0964C14.0776 26.9852 14.0372 26.8706 13.999 26.7549C13.8002 26.1719 13.6254 25.5764 13.4747 24.9765C13.4605 24.9181 13.4441 24.8585 13.431 24.799C13.644 24.6889 13.8526 24.5799 14.0678 24.4788C14.0776 24.471 14.0918 24.4687 14.1017 24.4597H14.106C14.2426 24.3541 14.3813 24.2451 14.5178 24.1429C14.6107 24.0721 14.7024 24.0047 14.7997 23.9339C14.8641 23.8845 14.9318 23.8384 15.0006 23.789C15.0148 23.7789 15.029 23.7688 15.0432 23.7598V23.7576C15.2945 23.5834 15.5435 23.4104 15.8013 23.2453C15.7991 23.2352 15.7991 23.225 15.7969 23.2138C18.7319 22.8453 21.4616 21.8016 23.8374 20.2367C23.8396 20.2344 23.8417 20.2344 23.8439 20.2322C23.8243 20.2816 23.8057 20.3333 23.7871 20.3827C23.7391 20.5175 23.6987 20.6512 23.6648 20.7883C23.6309 20.8961 23.6025 21.0006 23.5785 21.1107C23.5545 21.2017 23.5348 21.2927 23.5162 21.386C23.5141 21.3882 23.5141 21.3961 23.5141 21.4006C23.5141 21.4073 23.5097 21.4129 23.5097 21.4208C23.4955 21.4848 23.4857 21.5511 23.4758 21.6151C23.4715 21.6253 23.4715 21.6354 23.4693 21.6466C23.4551 21.7275 23.4409 21.8095 23.431 21.8949C23.4125 22.0005 23.4026 22.1095 23.3928 22.2218C23.3884 22.2364 23.3884 22.2544 23.3863 22.2712C23.3742 22.3813 23.3677 22.4903 23.3644 22.6004V22.6049C23.3622 22.615 23.3622 22.6296 23.3622 22.642C23.3546 22.7745 23.3524 22.9004 23.3524 23.0307C23.3524 24.4968 23.7347 25.873 24.4021 27.056V27.0583Z" fill="#F4B82B"/>
<path d="M37.4409 42.5551C32.0296 41.7799 27.1197 39.405 23.1656 35.9144C24.4796 33.9506 26.0766 32.1935 27.8832 30.7072C28.3497 31.7487 28.874 32.7541 29.4474 33.7237C29.5643 33.9225 29.6845 34.1169 29.8057 34.3112C29.8319 34.3562 29.868 34.4067 29.8942 34.4562C31.0444 36.2728 32.3781 37.9523 33.8702 39.4656C33.8702 39.4656 33.8716 39.4656 33.8745 39.4656C34.3344 39.9386 34.8117 40.3902 35.3022 40.8239C35.6178 41.107 35.9368 41.3777 36.2667 41.6429C36.2863 41.662 36.3071 41.6777 36.3267 41.6968C36.6905 41.9923 37.0608 42.2776 37.442 42.5574L37.4409 42.5551Z" fill="#242121"/>
<path d="M36.3257 41.6945C36.306 41.6754 36.2852 41.6597 36.2656 41.6406C35.9357 41.3755 35.6167 41.1047 35.3011 40.8216C34.8106 40.388 34.3344 39.9363 33.8734 39.4634C33.8734 39.4634 33.872 39.4634 33.8691 39.4634C32.3781 37.9501 31.0433 36.2716 29.8931 34.4539C29.8669 34.4045 29.8308 34.355 29.8046 34.309C29.6844 34.1146 29.5632 33.9203 29.4463 33.7214C28.874 32.7519 28.3486 31.7475 27.8821 30.705C26.0755 32.1913 24.4796 33.9484 23.1645 35.9121C27.1186 39.4016 32.0285 41.7777 37.4398 42.5528C37.0575 42.2742 36.6883 41.9889 36.3246 41.6923L36.3257 41.6945Z" fill="#242121"/>
<path d="M27.8833 30.7072C26.0766 32.1935 24.4807 33.9506 23.1656 35.9144C22.9264 35.7032 22.6915 35.4886 22.46 35.2673C22.1989 35.0235 21.9411 34.7707 21.6899 34.5146C20.898 33.7057 20.1519 32.8507 19.4583 31.9486C19.0422 31.4094 18.6446 30.8533 18.2666 30.2825C18.1399 30.0904 18.0154 29.8983 17.8952 29.7062C17.6517 29.3197 17.4168 28.9243 17.1918 28.5255C17.0793 28.3244 16.969 28.1244 16.8597 27.9222C16.7669 27.7503 16.6784 27.5773 16.5888 27.4009C16.5583 27.3436 16.5309 27.2874 16.5047 27.2357C17.8636 26.901 19.3109 26.7774 20.768 26.7628C20.8641 26.7605 20.9624 26.7605 21.0596 26.7605C22.1989 26.7605 23.3163 26.8616 24.4021 27.0582C25.1678 28.4187 26.3092 29.5242 27.6779 30.232C27.7118 30.3162 27.7467 30.4016 27.7849 30.4825C27.8155 30.5589 27.8494 30.6331 27.8833 30.7083V30.7072Z" fill="#E78F24"/>
<path d="M38.0668 43C37.9259 42.9854 37.785 42.973 37.6452 42.9506C37.5884 42.9438 37.5381 42.9404 37.4824 42.9303H37.466C36.7101 42.8461 35.963 42.7214 35.2246 42.5708C35.0575 42.5394 34.8893 42.5045 34.7222 42.4652C34.6031 42.4405 34.4906 42.4113 34.3748 42.3866C33.6266 42.2068 32.8849 42.0024 32.1618 41.7664C30.7691 41.3182 29.4223 40.7621 28.1279 40.1105C27.9706 40.0296 27.8122 39.9532 27.656 39.8689C27.2377 39.6499 26.8215 39.4162 26.4141 39.1746C25.7729 38.796 25.1481 38.3927 24.5408 37.9669C24.2208 37.7434 23.9094 37.5142 23.6003 37.2783C23.4813 37.1873 23.3677 37.0985 23.2508 37.0075H23.2486C23.0738 36.8693 22.9013 36.73 22.7298 36.5896C22.0121 35.9964 21.3272 35.3763 20.6675 34.7213C20.6271 34.682 20.5856 34.6427 20.5452 34.6011C20.2557 34.3079 19.9728 34.0135 19.6964 33.7124V33.7079C19.4135 33.3979 19.1339 33.0799 18.8619 32.7553C18.7571 32.6317 18.6467 32.5014 18.5441 32.371V32.3665C18.4512 32.2609 18.3616 32.1475 18.2764 32.0396C17.3174 30.824 16.4534 29.5343 15.6931 28.1716C15.6746 28.1424 15.6571 28.1177 15.6451 28.0907C15.7674 27.9649 15.8887 27.839 16.0132 27.7143C16.1377 27.5896 16.2622 27.4683 16.3889 27.3481C16.4272 27.3088 16.4654 27.274 16.5058 27.2369C16.5178 27.2616 16.5298 27.2863 16.544 27.3088C16.5604 27.3402 16.5757 27.3706 16.5899 27.402C16.6806 27.5773 16.7691 27.7514 16.8608 27.9233C16.9679 28.1255 17.0782 28.3289 17.1929 28.5266C17.4157 28.9277 17.6516 29.3209 17.8963 29.7073C18.0165 29.8995 18.141 30.0916 18.2677 30.2837C18.6456 30.8544 19.0432 31.4105 19.4594 31.9497C20.153 32.8508 20.8991 33.7068 21.691 34.5157C21.9422 34.7718 22.2 35.0246 22.4611 35.2684C22.6926 35.4897 22.9275 35.7043 23.1667 35.9155C27.1208 39.405 32.0307 41.781 37.442 42.5562C37.6124 42.6843 37.7872 42.8068 37.963 42.9303H37.9674L37.9718 42.9348C38.0023 42.9551 38.0362 42.9798 38.0679 43.0011L38.0668 43Z" fill="#242121"/>
<path d="M17.1929 28.5255C17.4179 28.9243 17.6527 29.3198 17.8963 29.7062C17.6516 29.3198 17.4157 28.9266 17.1929 28.5255Z" fill="#242121"/>
<path d="M37.4409 42.5551C32.0296 41.7799 27.1197 39.405 23.1656 35.9144C24.4796 33.9506 26.0766 32.1935 27.8832 30.7072C28.3497 31.7487 28.874 32.7541 29.4474 33.7237C29.5643 33.9225 29.6845 34.1169 29.8057 34.3112C29.8319 34.3562 29.868 34.4067 29.8942 34.4562C31.0444 36.2728 32.3781 37.9523 33.8702 39.4656C33.8702 39.4656 33.8716 39.4656 33.8745 39.4656C34.3344 39.9386 34.8117 40.3902 35.3022 40.8239C35.6178 41.107 35.9368 41.3777 36.2667 41.6429C36.2863 41.662 36.3071 41.6777 36.3267 41.6968C36.6905 41.9923 37.0608 42.2776 37.442 42.5574L37.4409 42.5551Z" fill="#56A8C1"/>
<path d="M15.6364 19.2087C15.62 19.5648 15.6123 19.9266 15.6123 20.2883C15.6123 21.2804 15.6768 22.2622 15.7969 23.2172C15.7991 23.2273 15.7991 23.2374 15.8013 23.2486C15.5435 23.4138 15.2945 23.5879 15.0432 23.7609C15.029 23.7677 15.0148 23.7778 15.0006 23.7924C14.9318 23.8418 14.8641 23.8879 14.7997 23.9373C14.7035 24.0081 14.6107 24.0755 14.5178 24.1463C14.3813 24.2474 14.2426 24.3575 14.106 24.4631V24.4361C14.1017 24.217 14.0995 23.998 14.0995 23.7789C14.0995 23.6362 14.0995 23.4958 14.1039 23.3531C14.1137 22.5487 14.1519 21.7533 14.2262 20.9669V20.9624C14.2601 20.576 14.3048 20.1917 14.3529 19.8053C14.5462 18.3313 14.839 16.8888 15.2311 15.4912C15.691 13.8476 16.2841 12.2602 16.9996 10.7424C17.5708 9.53245 18.2153 8.3708 18.9307 7.25859C19.0214 7.11816 19.1099 6.9811 19.2016 6.84291C19.2879 6.71259 19.3764 6.58227 19.4671 6.4542C19.5359 6.35646 19.6036 6.2576 19.6724 6.15873C19.9881 5.71385 20.318 5.2757 20.661 4.84542C20.9821 4.48142 21.3142 4.13203 21.6582 3.79163C21.6517 4.01295 21.6484 4.23651 21.6484 4.45783C21.6484 4.54097 21.6484 4.62522 21.6528 4.70611C18.1334 8.52247 15.892 13.5971 15.6353 19.2098L15.6364 19.2087Z" fill="#242121"/>
<path d="M22.9854 13.4533V13.4578C20.9417 15.844 18.4468 17.8089 15.6364 19.2087C15.8941 13.596 18.1344 8.52134 21.6539 4.70499C21.6539 5.03977 21.6604 5.37456 21.6735 5.7071C21.7806 8.39439 22.2284 10.9952 22.9843 13.4533H22.9854Z" fill="#56A8C1"/>
<path d="M36.33 22.624L36.3256 22.6195C36.2175 22.5948 36.1061 22.5723 35.9936 22.5487C35.3142 22.4128 34.6162 22.342 33.9007 22.342C33.6397 22.342 33.3819 22.3521 33.135 22.369C32.8095 22.3892 32.4862 22.4285 32.1705 22.4791C31.2038 22.1892 30.1825 22.0387 29.1208 22.0387C28.4993 22.0387 27.8963 22.0904 27.3054 22.1892C26.9591 22.2533 26.6194 22.3274 26.2841 22.4229C26.0809 22.3937 25.8778 22.369 25.6735 22.3521C25.6353 22.3443 25.5949 22.342 25.5566 22.3375C25.5501 22.3375 25.5381 22.3375 25.5326 22.333C25.5184 22.333 25.5042 22.333 25.4922 22.3285C25.4681 22.3263 25.4441 22.3263 25.4201 22.3229C25.4103 22.3229 25.3961 22.3229 25.3862 22.3184C25.3196 22.3117 25.2573 22.3061 25.1929 22.2982C25.111 22.2937 25.0323 22.2881 24.9537 22.2814C24.9559 22.1679 24.9602 22.0544 24.9657 21.9421C24.9974 21.4129 25.0858 20.8939 25.2213 20.3996C25.2377 20.3288 25.2573 20.2614 25.2759 20.1951C25.3141 20.0715 25.3545 19.9468 25.4026 19.8255C25.4474 19.6952 25.4987 19.5671 25.5533 19.4413C25.4911 19.3334 25.431 19.2245 25.3742 19.1144C25.3218 19.0189 25.2715 18.9245 25.2213 18.829C25.111 18.629 25.0083 18.4234 24.9056 18.219C24.8008 18.3639 24.6981 18.5122 24.6063 18.6639C24.5615 18.7324 24.5222 18.7987 24.484 18.8683C24.4523 18.9133 24.4261 18.9616 24.4021 19.0087C24.3704 19.0672 24.3354 19.1267 24.3059 19.1829C24.2961 19.202 24.2874 19.2143 24.2775 19.2323C24.2229 19.3424 24.1694 19.4559 24.1126 19.5671C24.0438 19.7199 23.9804 19.8772 23.9182 20.0367C23.8941 20.103 23.8679 20.1693 23.8439 20.2356C23.8242 20.285 23.8057 20.3367 23.7871 20.3861C23.739 20.5209 23.6986 20.6546 23.6648 20.7917C23.6309 20.8995 23.6025 21.004 23.5785 21.1141C23.5544 21.2051 23.5348 21.2961 23.5162 21.3893C23.514 21.3916 23.514 21.3994 23.514 21.4039C23.514 21.4107 23.5096 21.4163 23.5096 21.4242C23.4954 21.4882 23.4856 21.5545 23.4758 21.6185C23.4714 21.6286 23.4714 21.6387 23.4692 21.65C23.455 21.7309 23.4408 21.8129 23.431 21.8983C23.4124 22.0039 23.4026 22.1128 23.3928 22.2252C23.3884 22.2398 23.3884 22.2578 23.3862 22.2746C23.3742 22.3847 23.3676 22.4937 23.3644 22.6038V22.6083C23.3622 22.6184 23.3622 22.633 23.3622 22.6454C23.3545 22.7779 23.3524 22.9037 23.3524 23.0341C23.3524 24.5002 23.7347 25.8764 24.4021 27.0594C25.1678 28.4199 26.3092 29.5254 27.6779 30.2331C27.4955 29.8197 27.3283 29.3962 27.1689 28.9715V28.9692C26.9996 28.5266 26.8412 28.0761 26.6948 27.6211C26.6872 27.5941 26.6762 27.5672 26.6686 27.5402L26.8674 27.4807C26.8871 27.4728 26.9111 27.4661 26.9318 27.4582C27.4944 27.2829 28.0329 27.0571 28.5517 26.792C29.1547 26.4819 29.7216 26.1179 30.2524 25.709C30.4458 25.5562 30.6304 25.4057 30.8128 25.2461C31.1765 24.926 31.5228 24.5766 31.8439 24.2025C31.9204 24.1115 32.0023 24.016 32.0766 23.9193H32.081C32.1246 23.8969 32.1672 23.8733 32.212 23.8531C32.6784 23.6239 33.1623 23.4273 33.6593 23.2599H33.667C33.7489 23.2329 33.8374 23.2037 33.9204 23.1835C34.5233 23.0037 35.1481 22.8757 35.786 22.8094C36.0296 22.7802 36.2765 22.7633 36.5233 22.7555C36.6162 22.7532 36.7123 22.7487 36.8128 22.7487C36.6544 22.7038 36.4895 22.66 36.3289 22.6251L36.33 22.624ZM30.5572 23.7385C30.3704 23.7385 30.2175 23.5812 30.2175 23.3868C30.2175 23.1925 30.3704 23.0329 30.5572 23.0329C30.744 23.0329 30.9024 23.1925 30.9024 23.3868C30.9024 23.5812 30.7472 23.7385 30.5572 23.7385Z" fill="#CD6028"/>
<path d="M24.9067 18.2167V18.2212C24.8019 18.3661 24.6992 18.5144 24.6074 18.6661C24.5626 18.7346 24.5233 18.8009 24.4851 18.8706C24.4534 18.9155 24.4272 18.9638 24.4032 19.011C24.3715 19.0694 24.3365 19.1289 24.307 19.1851C24.2972 19.2042 24.2885 19.2166 24.2786 19.2345C24.224 19.3446 24.1705 19.4581 24.1137 19.5693C24.0449 19.7221 23.9815 19.8794 23.9193 20.0389C23.8952 20.1052 23.869 20.1715 23.845 20.2378C23.8428 20.24 23.8406 20.24 23.8384 20.2423C21.4627 21.8072 18.733 22.8509 15.798 23.2194C15.6778 22.2645 15.6134 21.2826 15.6134 20.2906C15.6134 19.9288 15.621 19.5671 15.6374 19.211C18.4479 17.8111 20.9417 15.8451 22.9865 13.46C23.2836 14.4374 23.6342 15.3912 24.0252 16.3214C24.2197 16.7888 24.4272 17.2494 24.6468 17.7022C24.733 17.8741 24.8161 18.0471 24.9078 18.219L24.9067 18.2167Z" fill="#E78F24"/>
</svg>
